<?xml version="1.0" encoding="UTF-8" standalone="no"?>
<!DOCTYPE svg PUBLIC "-//W3C//DTD SVG 1.1//EN" "http://www.w3.org/Graphics/SVG/1.1/DTD/svg11.dtd">
<svg width="100%" height="100%" viewBox="0 0 32 32" version="1.1" xmlns="http://www.w3.org/2000/svg" xmlns:xlink="http://www.w3.org/1999/xlink" xml:space="preserve" xmlns:serif="http://www.serif.com/" style="fill-rule:evenodd;clip-rule:evenodd;stroke-linejoin:round;stroke-miterlimit:1.41421;">
    <path d="M29.555,11.501L15.555,2.168C15.219,1.944 14.781,1.944 14.446,2.168L0.446,11.501C0.168,11.686 0.001,11.999 0.001,12.333L0.001,21.666C0.001,22 0.168,22.313 0.446,22.498L14.446,31.831C14.614,31.943 14.807,31.999 15.001,31.999C15.195,31.999 15.388,31.943 15.556,31.831L29.556,22.498C29.834,22.313 30.001,22 30.001,21.666L30.001,12.333C30.001,11.999 29.834,11.686 29.556,11.501L29.555,11.501ZM15,20.465L9.803,17L15,13.535L20.197,17L15,20.465ZM16,11.798L16,4.868L27.197,12.333L22,15.798L16,11.798ZM14,11.798L8,15.798L2.803,12.333L14,4.868L14,11.798ZM6.197,17L2,19.798L2,14.202L6.197,17ZM8,18.202L14,22.202L14,29.132L2.803,21.667L8,18.202ZM16,22.202L22,18.202L27.197,21.667L16,29.132L16,22.202ZM23.803,17L28,14.202L28,19.798L23.803,17Z" style="fill:white;fill-rule:nonzero;"/>
</svg>
