<?xml version="1.0" encoding="UTF-8" standalone="no"?>
<!DOCTYPE svg PUBLIC "-//W3C//DTD SVG 1.1//EN" "http://www.w3.org/Graphics/SVG/1.1/DTD/svg11.dtd">
<svg width="100%" height="100%" viewBox="0 0 32 32" version="1.1" xmlns="http://www.w3.org/2000/svg" xmlns:xlink="http://www.w3.org/1999/xlink" xml:space="preserve" xmlns:serif="http://www.serif.com/" style="fill-rule:evenodd;clip-rule:evenodd;stroke-linejoin:round;stroke-miterlimit:1.41421;">
    <path d="M16,32C7.175,32 0,24.825 0,16C0,7.175 7.175,0 16,0C24.825,0 32,7.175 32,16C32,24.825 24.825,32 16,32ZM29.494,18.188C29.025,18.038 25.263,16.919 20.982,17.607C22.77,22.519 23.494,26.519 23.638,27.351C26.701,25.276 28.888,21.995 29.494,18.188ZM21.337,28.6C21.131,27.4 20.343,23.225 18.424,18.237C18.393,18.249 18.361,18.256 18.337,18.268C10.624,20.956 7.856,26.299 7.612,26.799C9.931,28.605 12.843,29.686 15.999,29.686C17.893,29.686 19.699,29.299 21.337,28.599L21.337,28.6ZM5.844,25.156C6.157,24.625 9.907,18.418 16.95,16.137C17.125,16.081 17.306,16.024 17.488,15.975C17.144,15.2 16.769,14.419 16.382,13.656C9.563,15.7 2.938,15.612 2.338,15.606C2.332,15.743 2.332,15.881 2.332,16.025C2.332,19.531 3.663,22.737 5.844,25.156ZM2.625,13.219C3.237,13.225 8.869,13.25 15.262,11.557C13,7.532 10.556,4.145 10.193,3.651C6.368,5.457 3.505,8.982 2.624,13.22L2.625,13.219ZM12.8,2.731C13.175,3.237 15.663,6.619 17.9,10.731C22.763,8.912 24.819,6.143 25.063,5.793C22.65,3.649 19.476,2.349 16,2.349C14.9,2.355 13.825,2.487 12.8,2.73L12.8,2.731ZM26.581,7.381C26.293,7.769 24,10.706 18.95,12.769C19.269,13.419 19.575,14.082 19.856,14.75C19.956,14.988 20.056,15.219 20.15,15.456C24.7,14.887 29.219,15.8 29.669,15.894C29.638,12.669 28.481,9.706 26.582,7.382L26.581,7.381Z" style="fill:white;fill-rule:nonzero;"/>
</svg>
