<?xml version="1.0" encoding="UTF-8" standalone="no"?>
<!DOCTYPE svg PUBLIC "-//W3C//DTD SVG 1.1//EN" "http://www.w3.org/Graphics/SVG/1.1/DTD/svg11.dtd">
<svg width="100%" height="100%" viewBox="0 0 28 28" version="1.1" xmlns="http://www.w3.org/2000/svg" xmlns:xlink="http://www.w3.org/1999/xlink" xml:space="preserve" xmlns:serif="http://www.serif.com/" style="fill-rule:evenodd;clip-rule:evenodd;stroke-linejoin:round;stroke-miterlimit:1.41421;">
    <path d="M27.563,0.172C27.891,0.406 28.047,0.781 27.985,1.172L23.985,25.172C23.938,25.469 23.751,25.719 23.485,25.875C23.344,25.953 23.172,26 23.001,26C22.876,26 22.751,25.969 22.626,25.922L15.548,23.031L11.767,27.64C11.58,27.874 11.298,27.999 11.001,27.999C10.892,27.999 10.767,27.983 10.657,27.936C10.266,27.795 10.001,27.42 10.001,26.998L10.001,21.545L23.501,4.998L6.798,19.451L0.626,16.92C0.267,16.779 0.032,16.451 0.001,16.061C-0.015,15.686 0.173,15.327 0.501,15.139L26.501,0.139C26.657,0.045 26.829,-0.002 27.001,-0.002C27.204,-0.002 27.407,0.061 27.563,0.17L27.563,0.172Z" style="fill:white;fill-rule:nonzero;"/>
</svg>
