<?xml version="1.0" encoding="UTF-8" standalone="no"?>
<!DOCTYPE svg PUBLIC "-//W3C//DTD SVG 1.1//EN" "http://www.w3.org/Graphics/SVG/1.1/DTD/svg11.dtd">
<svg width="100%" height="100%" viewBox="0 0 462 462" version="1.1" xmlns="http://www.w3.org/2000/svg" xmlns:xlink="http://www.w3.org/1999/xlink" xml:space="preserve" xmlns:serif="http://www.serif.com/" style="fill-rule:evenodd;clip-rule:evenodd;stroke-linejoin:round;stroke-miterlimit:1.41421;">
    <g id="Artboard1" transform="matrix(1,0,0,1,-66,-53)">
        <rect x="66" y="53" width="462" height="462" style="fill:none;"/>
        <clipPath id="_clip1">
            <rect x="66" y="53" width="462" height="462"/>
        </clipPath>
        <g clip-path="url(#_clip1)">
            <g transform="matrix(1.04437,0,0,1.04437,-15.7804,23.7318)">
                <g transform="matrix(1,0,0,1,173.243,293.389)">
                    <path d="M0,-38.822C0,-40.663 -0.969,-42.355 -2.558,-43.267L-44.913,-67.642C-45.629,-68.064 -46.432,-68.283 -47.244,-68.316L-47.682,-68.316C-48.492,-68.283 -49.294,-68.064 -50.021,-67.642L-92.376,-43.267C-93.955,-42.355 -94.937,-40.663 -94.937,-38.822L-94.844,26.813C-94.844,27.726 -94.37,28.575 -93.567,29.023C-92.781,29.494 -91.809,29.494 -91.026,29.023L-65.854,14.609C-64.262,13.664 -63.293,11.995 -63.293,10.17L-63.293,-20.494C-63.293,-22.322 -62.325,-24.014 -60.739,-24.923L-50.021,-31.096C-49.222,-31.557 -48.349,-31.783 -47.457,-31.783C-46.584,-31.783 -45.689,-31.557 -44.913,-31.096L-34.198,-24.923C-32.612,-24.014 -31.64,-22.322 -31.64,-20.494L-31.64,10.17C-31.64,11.995 -30.658,13.674 -29.076,14.609L-3.911,29.023C-3.122,29.494 -2.136,29.494 -1.354,29.023C-0.574,28.575 -0.083,27.726 -0.083,26.813L0,-38.822Z" style="fill:rgb(51,51,51);"/>
                </g>
                <g transform="matrix(1,0,0,1,373.109,209.789)">
                    <path d="M0,78.954C0,79.41 -0.244,79.833 -0.64,80.06L-15.188,88.446C-15.583,88.673 -16.07,88.673 -16.465,88.446L-31.013,80.06C-31.41,79.833 -31.653,79.41 -31.653,78.954L-31.653,62.155C-31.653,61.699 -31.41,61.276 -31.014,61.047L-16.467,52.645C-16.07,52.416 -15.583,52.416 -15.186,52.645L-0.639,61.047C-0.244,61.276 0,61.699 0,62.155L0,78.954ZM3.931,-45.449C3.138,-45.889 2.171,-45.88 1.388,-45.42C0.607,-44.961 0.126,-44.121 0.126,-43.214L0.126,21.786C0.126,22.425 -0.216,23.017 -0.768,23.337C-1.322,23.657 -2.005,23.657 -2.559,23.337L-13.168,17.225C-14.75,16.312 -16.697,16.314 -18.28,17.226L-60.651,41.679C-62.235,42.593 -63.21,44.282 -63.21,46.11L-63.21,95.026C-63.21,96.854 -62.235,98.542 -60.653,99.458L-18.283,123.929C-16.699,124.843 -14.749,124.843 -13.165,123.929L29.212,99.458C30.794,98.542 31.77,96.854 31.77,95.026L31.77,-26.91C31.77,-28.764 30.766,-30.474 29.146,-31.378L3.931,-45.449Z" style="fill:rgb(51,51,51);"/>
                </g>
                <g transform="matrix(1,0,0,1,518.131,287.397)">
                    <path d="M0,-15.892C1.576,-16.807 2.546,-18.493 2.546,-20.316L2.546,-32.17C2.546,-33.993 1.576,-35.68 -0.002,-36.595L-42.101,-61.038C-43.685,-61.959 -45.64,-61.96 -47.228,-61.045L-89.584,-36.592C-91.167,-35.678 -92.142,-33.99 -92.142,-32.162L-92.142,16.741C-92.142,18.581 -91.155,20.278 -89.558,21.187L-47.465,45.172C-45.913,46.058 -44.01,46.068 -42.448,45.2L-16.988,31.049C-16.18,30.599 -15.677,29.752 -15.672,28.83C-15.666,27.907 -16.157,27.053 -16.956,26.594L-59.581,2.129C-60.377,1.673 -60.867,0.825 -60.867,-0.09L-60.867,-15.416C-60.867,-16.33 -60.379,-17.176 -59.586,-17.632L-46.32,-25.28C-45.531,-25.736 -44.556,-25.736 -43.766,-25.28L-30.494,-17.632C-29.701,-17.176 -29.214,-16.33 -29.214,-15.416L-29.214,-3.358C-29.214,-2.442 -28.724,-1.596 -27.931,-1.14C-27.138,-0.682 -26.161,-0.686 -25.37,-1.145L0,-15.892Z" style="fill:rgb(51,51,51);"/>
                </g>
                <g transform="matrix(1,0,0,1,472.842,289.685)">
                    <path d="M0,-20.471C0.304,-20.647 0.678,-20.647 0.982,-20.471L9.112,-15.781C9.416,-15.605 9.603,-15.281 9.603,-14.93L9.603,-5.542C9.603,-5.19 9.416,-4.867 9.112,-4.691L0.982,0C0.678,0.176 0.304,0.176 0,0L-8.124,-4.691C-8.428,-4.867 -8.615,-5.19 -8.615,-5.542L-8.615,-14.93C-8.615,-15.281 -8.428,-15.605 -8.124,-15.781L0,-20.471Z" style="fill:rgb(101,159,102);"/>
                </g>
                <g transform="matrix(-38.0649,77.6524,77.6524,38.0649,258.701,244.714)">
                    <path d="M-0.088,-0.296L0.379,-0.61C0.396,-0.622 0.419,-0.623 0.438,-0.614L0.943,-0.366C0.962,-0.357 0.974,-0.339 0.976,-0.318L1.014,0.244C1.015,0.265 1.006,0.285 0.988,0.297L0.521,0.61C0.504,0.622 0.481,0.623 0.462,0.614L-0.043,0.366C-0.062,0.357 -0.074,0.339 -0.076,0.318L-0.114,-0.244C-0.115,-0.254 -0.112,-0.264 -0.108,-0.273C-0.103,-0.283 -0.097,-0.291 -0.088,-0.296Z" style="fill:url(#_Linear2);fill-rule:nonzero;"/>
                </g>
                <g transform="matrix(106.807,-78.9149,-78.9149,-106.807,235.154,285.349)">
                    <path d="M-0.338,0.046C-0.338,0.041 -0.337,0.036 -0.335,0.032L-0.209,-0.257L-0.188,-0.304C-0.185,-0.312 -0.18,-0.318 -0.174,-0.322C-0.171,-0.323 -0.169,-0.324 -0.167,-0.325L0.466,-0.031C0.466,-0.027 0.465,-0.024 0.463,-0.02L0.368,0.2L0.317,0.316C0.315,0.319 0.314,0.322 0.311,0.325L-0.338,0.046Z" style="fill:url(#_Linear3);fill-rule:nonzero;"/>
                </g>
                <g transform="matrix(97.417,0,0,-97.417,192.862,279.647)">
                    <path d="M0.495,0.551C0.488,0.55 0.48,0.548 0.474,0.544L0.043,0.296L0.508,-0.551C0.514,-0.55 0.52,-0.548 0.526,-0.545L0.959,-0.295C0.972,-0.287 0.981,-0.274 0.984,-0.259L0.51,0.55C0.506,0.551 0.503,0.551 0.499,0.551C0.498,0.551 0.496,0.551 0.495,0.551Z" style="fill:url(#_Linear4);fill-rule:nonzero;"/>
                </g>
            </g>
        </g>
    </g>
    <defs>
        <linearGradient id="_Linear2" x1="0" y1="0" x2="1" y2="0" gradientUnits="userSpaceOnUse" gradientTransform="matrix(1,5.55112e-17,5.55112e-17,-1,4.44089e-16,7.12087e-06)"><stop offset="0" style="stop-color:rgb(105,126,102);stop-opacity:1"/><stop offset="1" style="stop-color:rgb(130,161,120);stop-opacity:1"/></linearGradient>
        <linearGradient id="_Linear3" x1="0" y1="0" x2="1" y2="0" gradientUnits="userSpaceOnUse" gradientTransform="matrix(1,0,0,-1,0,-4.30748e-05)"><stop offset="0" style="stop-color:rgb(105,126,102);stop-opacity:1"/><stop offset="0.14" style="stop-color:rgb(105,126,102);stop-opacity:1"/><stop offset="0.91" style="stop-color:rgb(154,180,142);stop-opacity:1"/><stop offset="1" style="stop-color:rgb(154,180,142);stop-opacity:1"/></linearGradient>
        <linearGradient id="_Linear4" x1="0" y1="0" x2="1" y2="0" gradientUnits="userSpaceOnUse" gradientTransform="matrix(1,0,0,-1,0,-4.14671e-05)"><stop offset="0" style="stop-color:rgb(154,180,142);stop-opacity:1"/><stop offset="0.09" style="stop-color:rgb(154,180,142);stop-opacity:1"/><stop offset="0.86" style="stop-color:rgb(105,126,102);stop-opacity:1"/><stop offset="1" style="stop-color:rgb(105,126,102);stop-opacity:1"/></linearGradient>
    </defs>
</svg>
